<svg width="45" height="45" viewBox="0 0 45 45" fill="none" xmlns="http://www.w3.org/2000/svg">
<path d="M38.8369 15.24L38.3756 16.3012C38.3036 16.4741 38.1819 16.6217 38.0261 16.7255C37.8703 16.8293 37.6873 16.8848 37.5 16.8848C37.3128 16.8848 37.1297 16.8293 36.9739 16.7255C36.8181 16.6217 36.6965 16.4741 36.6244 16.3012L36.1631 15.24C35.3522 13.3626 33.867 11.8574 32.0006 11.0212L30.5775 10.3856C30.4049 10.3062 30.2586 10.1789 30.1561 10.0189C30.0535 9.85891 29.9991 9.67286 29.9991 9.48281C29.9991 9.29277 30.0535 9.10671 30.1561 8.9467C30.2586 8.78668 30.4049 8.65942 30.5775 8.58L31.9219 7.98188C33.8351 7.12196 35.3457 5.56103 36.1425 3.62063L36.6169 2.475C36.6866 2.29754 36.8081 2.14519 36.9656 2.0378C37.1231 1.93041 37.3094 1.87297 37.5 1.87297C37.6907 1.87297 37.8769 1.93041 38.0344 2.0378C38.1919 2.14519 38.3135 2.29754 38.3831 2.475L38.8575 3.61875C39.6534 5.55952 41.1634 7.12113 43.0763 7.98188L44.4225 8.58188C44.5946 8.66152 44.7404 8.78877 44.8425 8.94858C44.9447 9.10839 44.9989 9.29409 44.9989 9.48375C44.9989 9.67341 44.9447 9.85911 44.8425 10.0189C44.7404 10.1787 44.5946 10.306 44.4225 10.3856L42.9975 11.0194C41.1315 11.8563 39.647 13.3622 38.8369 15.24ZM22.5 3.75C12.1444 3.75 3.75001 12.1444 3.75001 22.5C3.74698 24.9627 4.23059 27.4018 5.17306 29.677C6.11553 31.9523 7.49829 34.0189 9.24189 35.7581L3.75001 41.25H22.5C32.8556 41.25 41.25 32.8556 41.25 22.5C41.25 21.745 41.2063 21.0013 41.1188 20.2688L37.395 20.7094C37.465 21.2969 37.5 21.8937 37.5 22.5C37.5 26.4782 35.9197 30.2936 33.1066 33.1066C30.2936 35.9196 26.4783 37.5 22.5 37.5H12.8025L14.5463 35.7581L11.8931 33.1069C10.4978 31.7158 9.39129 30.0625 8.63734 28.2421C7.88339 26.4218 7.49687 24.4703 7.50001 22.5C7.49943 20.2104 8.02299 17.9511 9.03057 15.8951C10.0382 13.8391 11.503 12.0411 13.3129 10.6388C15.1228 9.2365 17.2297 8.26713 19.4722 7.80496C21.7146 7.34279 24.0331 7.4001 26.25 7.9725L27.1838 4.34063C25.6838 3.95438 24.1144 3.75 22.5 3.75ZM16.875 16.875H13.125V28.125H16.875V16.875ZM31.875 16.875H28.125V28.125H31.875V16.875ZM24.375 11.25H20.625V33.75H24.375V11.25Z" fill="white"/>
</svg>
