<svg width="35" height="35" viewBox="0 0 35 35" fill="none" xmlns="http://www.w3.org/2000/svg">
<path d="M30.2064 11.8534L29.8477 12.6788C29.7916 12.8132 29.697 12.928 29.5758 13.0088C29.4546 13.0895 29.3123 13.1326 29.1666 13.1326C29.021 13.1326 28.8786 13.0895 28.7574 13.0088C28.6362 12.928 28.5417 12.8132 28.4856 12.6788L28.1268 11.8534C27.4961 10.3932 26.3409 9.22241 24.8893 8.57211L23.7825 8.07774C23.6482 8.01597 23.5344 7.91699 23.4547 7.79253C23.3749 7.66807 23.3326 7.52336 23.3326 7.37555C23.3326 7.22774 23.3749 7.08303 23.4547 6.95857C23.5344 6.83411 23.6482 6.73513 23.7825 6.67336L24.8281 6.20815C26.3162 5.53933 27.4911 4.32527 28.1108 2.81607L28.4798 1.92503C28.534 1.787 28.6285 1.66851 28.751 1.58498C28.8735 1.50146 29.0184 1.45679 29.1666 1.45679C29.3149 1.45679 29.4598 1.50146 29.5823 1.58498C29.7048 1.66851 29.7993 1.787 29.8535 1.92503L30.2225 2.81461C30.8415 4.3241 32.0159 5.53868 33.5037 6.20815L34.5508 6.67482C34.6847 6.73677 34.798 6.83574 34.8775 6.96003C34.9569 7.08433 34.9991 7.22876 34.9991 7.37628C34.9991 7.52379 34.9569 7.66823 34.8775 7.79253C34.798 7.91682 34.6847 8.01579 34.5508 8.07774L33.4425 8.57065C31.9912 9.2216 30.8365 10.3929 30.2064 11.8534ZM17.5 2.9167C9.4456 2.9167 2.91664 9.44566 2.91664 17.5C2.91428 19.4155 3.29042 21.3125 4.02345 23.0822C4.75648 24.8518 5.83196 26.4592 7.1881 27.8119L2.91664 32.0834H17.5C25.5543 32.0834 32.0833 25.5544 32.0833 17.5C32.0833 16.9128 32.0493 16.3343 31.9812 15.7646L29.085 16.1073C29.1394 16.5643 29.1666 17.0285 29.1666 17.5C29.1666 20.5942 27.9375 23.5617 25.7495 25.7496C23.5616 27.9375 20.5942 29.1667 17.5 29.1667H9.95747L11.3137 27.8119L9.25018 25.7498C8.1649 24.6679 7.3043 23.382 6.71789 21.9661C6.13149 20.5503 5.83086 19.0325 5.8333 17.5C5.83285 15.7192 6.24006 13.962 7.02374 12.3629C7.80741 10.7638 8.94675 9.36535 10.3545 8.27466C11.7622 7.18398 13.4009 6.43002 15.145 6.07055C16.8891 5.71109 18.6924 5.75567 20.4166 6.20086L21.1429 3.37607C19.9762 3.07566 18.7556 2.9167 17.5 2.9167ZM13.125 13.125H10.2083V21.875H13.125V13.125ZM24.7916 13.125H21.875V21.875H24.7916V13.125ZM18.9583 8.75003H16.0416V26.25H18.9583V8.75003Z" fill="#00D09E"/>
</svg>
