<svg width="57" height="53" viewBox="0 0 57 53" fill="none" xmlns="http://www.w3.org/2000/svg">
<rect width="57" height="53" rx="22" fill="#00D09E"/>
<path d="M41.4605 31.0394C40.1465 34.3691 38.6911 36.2319 34.5376 38.8534L41.4605 31.0394Z" fill="#F1FFF3"/>
<path d="M14.4741 24.8924C14.7538 21.3818 16.346 18.1054 18.9332 15.7162C21.5205 13.3269 24.9129 12.0001 28.4346 12C31.9505 12.0005 35.3377 13.3229 37.9238 15.7047C40.51 18.0866 42.106 21.3538 42.3952 24.8578M41.4605 31.0394C40.1465 34.3691 38.6911 36.2319 34.5376 38.8534M41.4605 31.0394C41.0742 30.9217 40.7503 30.6558 40.5594 30.3C40.3685 29.9442 40.3262 29.5273 40.4418 29.1404C40.7031 28.2761 40.8348 27.3778 40.8325 26.4748C40.8325 26.275 40.8719 26.0772 40.9485 25.8927C41.0251 25.7082 41.1374 25.5406 41.2789 25.3996C41.4204 25.2585 41.5884 25.1468 41.7731 25.0708C41.9579 24.9948 42.1558 24.956 42.3556 24.9567C42.5552 24.956 42.7529 24.9948 42.9374 25.0709C43.1219 25.1469 43.2895 25.2588 43.4306 25.3999C43.5717 25.541 43.6835 25.7086 43.7596 25.8931C43.8356 26.0776 43.8744 26.2753 43.8738 26.4748C43.8833 27.6746 43.7167 28.8693 43.3793 30.0206C43.2856 30.3335 43.0936 30.6079 42.8317 30.803C42.5698 30.9981 42.252 31.1036 41.9254 31.1037C41.7682 31.1036 41.6118 31.0819 41.4605 31.0394ZM28.6275 28.542V27.5529C28.6278 27.1237 28.7431 26.7023 28.9614 26.3327C29.1797 25.9631 29.4753 25.6719 29.8688 25.4512C30.2622 25.2304 30.5897 24.9088 30.8174 24.5193C31.0452 24.1299 31.1649 23.6868 31.1644 23.2357C31.1542 22.5665 30.8835 21.9276 30.4098 21.4549C29.9361 20.9821 29.2967 20.7126 28.6275 20.7037C27.956 20.7037 27.3119 20.9705 26.8371 21.4453C26.3623 21.9202 26.0955 22.5642 26.0955 23.2357V23.7945M14.9488 31.1037C14.6222 31.1036 14.3044 30.9981 14.0425 30.803C13.7805 30.6079 13.5885 30.3335 13.4949 30.0206C13.1575 28.8693 12.9908 27.6746 13.0004 26.4748C13.0004 26.275 13.0398 26.0772 13.1164 25.8927C13.193 25.7082 13.3053 25.5406 13.4468 25.3996C13.5883 25.2585 13.7563 25.1468 13.941 25.0708C14.1258 24.9948 14.3237 24.956 14.5235 24.9567C14.7231 24.956 14.9208 24.9948 15.1053 25.0709C15.2898 25.1469 15.4574 25.2588 15.5985 25.3999C15.7396 25.541 15.8514 25.7086 15.9275 25.8931C16.0035 26.0776 16.0424 26.2753 16.0418 26.4748C16.0419 27.3776 16.1734 28.2755 16.4324 29.1404C16.4903 29.3319 16.5099 29.5331 16.49 29.7322C16.4701 29.9313 16.4112 30.1246 16.3166 30.301C16.222 30.4773 16.0935 30.6333 15.9386 30.76C15.7837 30.8867 15.6053 30.9817 15.4137 31.0394C15.2626 31.0827 15.106 31.1044 14.9488 31.1037ZM35.2938 32.3252C36.2238 31.3964 36.9467 30.2813 37.4149 29.0532C37.8832 27.8251 38.0861 26.5119 38.0105 25.1997C37.9348 23.8875 37.5822 22.6063 36.9759 21.4401C36.3696 20.274 35.5233 19.2494 34.4926 18.4338C32.8538 17.1405 30.8291 16.4334 28.7415 16.4254C26.6539 16.4173 24.6237 17.1087 22.975 18.3893C21.2066 19.7717 19.9965 21.7458 19.5668 23.9488C19.1371 26.1519 19.5167 28.436 20.6359 30.3816L18.9545 35.2923C18.9449 35.3201 18.9431 35.3501 18.9495 35.3788C18.9559 35.4075 18.9702 35.4338 18.9907 35.4549C19.0112 35.476 19.0372 35.4909 19.0658 35.498C19.0944 35.5051 19.1243 35.504 19.1523 35.495L24.068 33.8087C25.8416 34.8312 27.903 35.2401 29.9326 34.9718C31.9622 34.7036 33.8466 33.7733 35.2938 32.3252ZM34.6657 39.4563C34.6657 40.2729 34.0037 40.9349 33.187 40.9349C32.3704 40.9349 31.7084 40.2729 31.7084 39.4563C31.7084 38.6396 32.3704 37.9776 33.187 37.9776C34.0037 37.9776 34.6657 38.6396 34.6657 39.4563Z" stroke="#F1FFF3" stroke-width="2.22242" stroke-miterlimit="10"/>
<circle cx="28.4349" cy="30.2127" r="0.989059" fill="#F1FFF3"/>
</svg>
