<svg width="26" height="25" viewBox="0 0 26 25" fill="none" xmlns="http://www.w3.org/2000/svg">
<path d="M13.1667 20.3125C11.5885 20.3125 10.1479 20.0313 8.85261 19.5766L11.5276 16.9C12.0307 17.0875 12.5745 17.1875 13.1385 17.1875C15.7167 17.1875 17.826 15.0781 17.826 12.5C17.826 11.9344 17.726 11.3906 17.5401 10.8891L21.1104 7.31876C22.7589 8.49756 24.1999 9.94226 25.3745 11.5938C25.5651 11.8575 25.6677 12.1746 25.6677 12.5C25.6677 12.8254 25.5651 13.1425 25.3745 13.4063C24.2354 15.0313 19.9948 20.3125 13.1667 20.3125ZM14.7901 8.11407L17.4807 5.42345C16.0948 4.93552 14.636 4.68667 13.1667 4.68751C6.33854 4.68751 2.09792 9.96876 0.958855 11.5938C0.768211 11.8575 0.665588 12.1746 0.665588 12.5C0.665588 12.8254 0.768211 13.1425 0.958855 13.4063C1.55573 14.2563 3.00104 16.1094 5.22292 17.6813L8.75417 14.15C8.55473 13.6227 8.45204 13.0638 8.45104 12.5C8.45104 9.92189 10.5604 7.81251 13.1385 7.81251C13.7198 7.81251 14.276 7.91876 14.7901 8.11407ZM3.56354 23.2094C3.49091 23.282 3.40467 23.3396 3.30977 23.379C3.21486 23.4183 3.11314 23.4385 3.01042 23.4385C2.90769 23.4385 2.80597 23.4183 2.71107 23.379C2.61616 23.3396 2.52993 23.282 2.45729 23.2094C2.38466 23.1368 2.32704 23.0505 2.28773 22.9556C2.24841 22.8607 2.22818 22.759 2.22818 22.6563C2.22818 22.5535 2.24841 22.4518 2.28773 22.3569C2.32704 22.262 2.38466 22.1758 2.45729 22.1031L22.7698 1.79064C22.9165 1.64394 23.1155 1.56152 23.3229 1.56152C23.5304 1.56152 23.7293 1.64394 23.876 1.79064C24.0227 1.93733 24.1052 2.1363 24.1052 2.34376C24.1052 2.55122 24.0227 2.75019 23.876 2.89689L3.56354 23.2094ZM12.8229 15.6063C13.2885 15.6578 13.7598 15.6041 14.2018 15.4489C14.6439 15.2938 15.0454 15.0412 15.3766 14.71C15.7079 14.3787 15.9604 13.9772 16.1156 13.5352C16.2707 13.0931 16.3245 12.6219 16.2729 12.1563L12.8229 15.6063ZM13.5104 9.39376C13.0448 9.34219 12.5735 9.39597 12.1315 9.55112C11.6895 9.70626 11.288 9.95881 10.9567 10.2901C10.6255 10.6213 10.3729 11.0228 10.2178 11.4648C10.0626 11.9069 10.0089 12.3781 10.0604 12.8438L13.5104 9.39376Z" fill="#00D09E"/>
</svg>
