<svg width="57" height="53" viewBox="0 0 57 53" fill="none" xmlns="http://www.w3.org/2000/svg">
<rect width="57" height="53" rx="22" fill="#00D09E"/>
<path d="M39.7678 41H17.2322C16.9054 41 16.592 40.8686 16.3609 40.6348C16.1298 40.4009 16 40.0837 16 39.753V21.731C15.9993 21.5589 16.0344 21.3886 16.103 21.2312C16.1717 21.0738 16.2723 20.9327 16.3984 20.8173L27.6635 10.3308C27.8903 10.1182 28.1881 10 28.4974 10C28.8066 10 29.1044 10.1182 29.3312 10.3308L40.6017 20.8173C40.7267 20.9336 40.8266 21.0748 40.8952 21.232C40.9637 21.3893 40.9994 21.5591 41 21.731V39.753C41 40.0837 40.8702 40.4009 40.6391 40.6348C40.408 40.8686 40.0946 41 39.7678 41ZM25.6027 32.1798H31.4026C31.5226 32.1805 31.6412 32.2051 31.7518 32.2522C31.8624 32.2993 31.9627 32.368 32.047 32.4544C32.1313 32.5407 32.198 32.643 32.2433 32.7555C32.2886 32.8679 32.3115 32.9882 32.3108 33.1097V41H24.6892V33.1097C24.6885 32.9878 24.7116 32.867 24.7572 32.7542C24.8028 32.6414 24.87 32.5389 24.9549 32.4525C25.0398 32.3661 25.1407 32.2975 25.2519 32.2507C25.3631 32.2039 25.4823 32.1798 25.6027 32.1798Z" stroke="white" stroke-width="2" stroke-linecap="round" stroke-linejoin="round"/>
</svg>
