<svg width="30" height="30" viewBox="0 0 30 30" fill="none" xmlns="http://www.w3.org/2000/svg">
<rect width="30" height="30" rx="15" fill="white"/>
<path d="M21.3891 20.4892L21.3953 19.8464H21.3891V20.4892ZM22.0853 18.9694L21.5606 19.3409L21.5692 19.353L21.5783 19.3647L22.0853 18.9694ZM20.479 15.0977L21.1122 14.9866L21.1108 14.9791L20.479 15.0977ZM19.1011 8.43708L19.6083 8.04203L19.607 8.04039L19.1011 8.43708ZM15.0002 6.40053L15.0017 5.75766L14.9981 5.75767L15.0002 6.40053ZM10.8993 8.43708L10.3938 8.03991L10.3921 8.04203L10.8993 8.43708ZM9.52507 15.0977L8.89316 14.9793L8.89188 14.9866L9.52507 15.0977ZM7.91879 18.9694L8.42228 19.3691L8.43324 19.3553L8.44343 19.3409L7.91879 18.9694ZM8.61496 20.4892V19.8463L8.60276 19.8465L8.61496 20.4892ZM14.361 6.40054C14.361 6.75558 14.6488 7.0434 15.0038 7.0434C15.3589 7.0434 15.6467 6.75558 15.6467 6.40054H14.361ZM15.6467 5.14286C15.6467 4.78782 15.3589 4.5 15.0038 4.5C14.6488 4.5 14.361 4.78782 14.361 5.14286H15.6467ZM15.0002 24L15.0016 23.3571H15.0002L15.0002 24ZM21.3891 20.4892L21.3828 21.1321C21.6804 21.1349 21.9703 21.0488 22.2183 20.8869L21.8669 20.3486L21.5156 19.8102C21.477 19.8354 21.4354 19.8468 21.3953 19.8464L21.3891 20.4892ZM21.8669 20.3486L22.2183 20.8869C22.4659 20.7253 22.6603 20.4959 22.7826 20.2289L22.1982 19.9612L21.6137 19.6935C21.5899 19.7454 21.5545 19.7848 21.5156 19.8102L21.8669 20.3486ZM22.1982 19.9612L22.7826 20.2289C22.9049 19.9621 22.9513 19.6663 22.9181 19.3754L22.2794 19.4481L21.6407 19.5208C21.6475 19.5811 21.6376 19.6413 21.6137 19.6935L22.1982 19.9612ZM22.2794 19.4481L22.9181 19.3754C22.885 19.0843 22.7732 18.8062 22.5922 18.5741L22.0853 18.9694L21.5783 19.3647C21.611 19.4066 21.6338 19.4606 21.6407 19.5208L22.2794 19.4481ZM22.0853 18.9694L22.6099 18.5979C21.855 17.5318 21.342 16.2965 21.1122 14.9866L20.479 15.0977L19.8458 15.2088C20.108 16.7034 20.694 18.1171 21.5606 19.3409L22.0853 18.9694ZM20.479 15.0977L21.1108 14.9791C21.012 14.4526 20.9697 13.9087 20.9404 13.3384C20.9118 12.7822 20.895 12.1754 20.8438 11.5928C20.7397 10.4079 20.4846 9.16708 19.6083 8.04203L19.1011 8.43708L18.594 8.83212C19.2478 9.67144 19.4677 10.621 19.563 11.7054C19.6115 12.2575 19.6255 12.805 19.6563 13.4044C19.6864 13.9898 19.732 14.6029 19.8471 15.2162L20.479 15.0977ZM19.1011 8.43708L19.607 8.04039C19.0511 7.33144 18.3505 6.7576 17.5541 6.36209L17.2682 6.93785L16.9822 7.51362C17.6037 7.82226 18.155 8.27237 18.5953 8.83377L19.1011 8.43708ZM17.2682 6.93785L17.5541 6.36209C16.7575 5.9665 15.8858 5.75969 15.0017 5.75767L15.0002 6.40053L14.9987 7.04338C15.6837 7.04495 16.3609 7.20505 16.9822 7.51362L17.2682 6.93785ZM15.0002 6.40053L14.9981 5.75767C14.1143 5.76058 13.2431 5.96778 12.4468 6.3632L12.7328 6.93897L13.0187 7.51473C13.6401 7.20612 14.3173 7.04564 15.0023 7.04338L15.0002 6.40053ZM12.7328 6.93897L12.4468 6.3632C11.6507 6.75856 10.9502 7.33176 10.3938 8.03991L10.8993 8.43708L11.4048 8.83425C11.8456 8.27326 12.3971 7.82341 13.0187 7.51473L12.7328 6.93897ZM10.8993 8.43708L10.3921 8.04203C9.51566 9.16725 9.2616 10.4073 9.1584 11.5919C9.10767 12.1741 9.09133 12.781 9.06309 13.3372C9.03413 13.9076 8.99203 14.4519 8.8932 14.9793L9.52507 15.0977L10.1569 15.2161C10.272 14.6017 10.3174 13.9881 10.3471 13.4024C10.3776 12.8027 10.3912 12.2554 10.4393 11.7035C10.5337 10.6197 10.7528 9.67127 11.4065 8.83212L10.8993 8.43708ZM9.52507 15.0977L8.89188 14.9866C8.66206 16.2965 8.14906 17.5318 7.39414 18.5979L7.91879 18.9694L8.44343 19.3409C9.31005 18.1171 9.89603 16.7034 10.1583 15.2088L9.52507 15.0977ZM7.91879 18.9694L7.41529 18.5697C7.2313 18.8015 7.11707 19.0805 7.08252 19.373L7.72094 19.4484L8.35935 19.5238C8.36644 19.4638 8.38954 19.4104 8.42228 19.3691L7.91879 18.9694ZM7.72094 19.4484L7.08252 19.373C7.04797 19.6654 7.09404 19.963 7.2169 20.2312L7.80136 19.9635L8.38582 19.6958C8.36203 19.6438 8.35226 19.5838 8.35935 19.5238L7.72094 19.4484ZM7.80136 19.9635L7.2169 20.2312C7.33984 20.4996 7.53584 20.7299 7.78566 20.8913L8.13456 20.3514L8.48347 19.8115C8.44482 19.7865 8.40953 19.7475 8.38582 19.6958L7.80136 19.9635ZM8.13456 20.3514L7.78566 20.8913C8.03582 21.053 8.32801 21.1376 8.62715 21.132L8.61496 20.4892L8.60276 19.8465C8.56306 19.8472 8.52177 19.8362 8.48347 19.8115L8.13456 20.3514ZM8.61496 20.4892V21.1321H21.3891V20.4892V19.8464H8.61496V20.4892ZM15.0038 6.40054H15.6467V5.14286H15.0038H14.361V6.40054H15.0038ZM16.8349 22.0774L16.1921 22.0786C16.1924 22.2507 16.1603 22.4205 16.0982 22.578L16.6962 22.8138L17.2943 23.0495C17.4163 22.7401 17.4784 22.4094 17.4778 22.0762L16.8349 22.0774ZM16.6962 22.8138L16.0982 22.578C16.0361 22.7355 15.9457 22.8767 15.8335 22.9942L16.2986 23.438L16.7637 23.8818C16.9925 23.6421 17.1723 23.359 17.2943 23.0495L16.6962 22.8138ZM16.2986 23.438L15.8335 22.9942C15.7215 23.1116 15.59 23.203 15.4475 23.2647L15.7029 23.8547L15.9583 24.4446C16.2614 24.3134 16.5348 24.1216 16.7637 23.8818L16.2986 23.438ZM15.7029 23.8547L15.4475 23.2647C15.3051 23.3263 15.1537 23.3575 15.0016 23.3571L15.0002 24L14.9989 24.6429C15.3289 24.6435 15.655 24.5759 15.9583 24.4446L15.7029 23.8547ZM15.0002 24L15.0002 23.3571C14.8483 23.3571 14.697 23.3258 14.5549 23.264L14.2987 23.8536L14.0424 24.4431C14.345 24.5747 14.6706 24.6429 15.0002 24.6429L15.0002 24ZM14.2987 23.8536L14.5549 23.264C14.4127 23.2022 14.2815 23.1107 14.1697 22.9933L13.7041 23.4367L13.2386 23.88C13.467 24.1197 13.7398 24.3116 14.0424 24.4431L14.2987 23.8536ZM13.7041 23.4367L14.1697 22.9933C14.0578 22.8758 13.9676 22.7347 13.9057 22.5774L13.3075 22.8129L12.7093 23.0483C12.831 23.3575 13.0104 23.6403 13.2386 23.88L13.7041 23.4367ZM13.3075 22.8129L13.9057 22.5774C13.8437 22.4201 13.8117 22.2505 13.812 22.0786L13.1691 22.0774L12.5263 22.0762C12.5257 22.409 12.5876 22.7392 12.7093 23.0483L13.3075 22.8129Z" fill="#00D09E"/>
</svg>
