<svg width="57" height="53" viewBox="0 0 57 53" fill="none" xmlns="http://www.w3.org/2000/svg">
<rect width="57" height="53" rx="22" fill="#00D09E"/>
<path d="M33.788 31.5286L37.733 27.2746C37.9056 27.0641 38 26.8004 38 26.5283C38 26.2561 37.9056 25.9924 37.733 25.782L33.788 21.5279M37.9895 26.5118H26.3319M33.9065 37.3937V37.5514C33.9065 38.1967 33.6501 38.8155 33.1939 39.2717C32.7376 39.7279 32.1187 39.9842 31.4735 39.9842H22.4328C21.7875 39.9842 21.1688 39.7279 20.7126 39.2717C20.2563 38.8155 20 38.1967 20 37.5514V15.4328C20 14.7876 20.2563 14.1688 20.7126 13.7126C21.1688 13.2563 21.7875 13 22.4328 13H31.4735C32.1187 13 32.7376 13.2563 33.1939 13.7126C33.6501 14.1688 33.9065 14.7876 33.9065 15.4328V15.5183" stroke="#F1FFF3" stroke-width="2.63004" stroke-linecap="round" stroke-linejoin="round"/>
</svg>
