<svg width="37" height="37" viewBox="0 0 37 37" fill="none" xmlns="http://www.w3.org/2000/svg">
<rect width="37" height="37" rx="12" fill="#00D09E"/>
<rect x="9.5" y="28.5" width="19" height="19" rx="2.5" transform="rotate(-90 9.5 28.5)" stroke="white"/>
<path d="M24.5 14C24.5 13.7239 24.2761 13.5 24 13.5L19.5 13.5C19.2239 13.5 19 13.7239 19 14C19 14.2761 19.2239 14.5 19.5 14.5L23.5 14.5L23.5 18.5C23.5 18.7761 23.7239 19 24 19C24.2761 19 24.5 18.7761 24.5 18.5L24.5 14ZM14 24L14.3536 24.3536L24.3536 14.3536L24 14L23.6464 13.6464L13.6464 23.6464L14 24Z" fill="white"/>
</svg>
