<svg width="37" height="37" viewBox="0 0 37 37" fill="none" xmlns="http://www.w3.org/2000/svg">
<rect width="37" height="37" rx="12" fill="#00D09E"/>
<rect x="9.5" y="9.5" width="19" height="19" rx="2.5" stroke="white"/>
<path d="M24 24.5C24.2761 24.5 24.5 24.2761 24.5 24L24.5 19.5C24.5 19.2239 24.2761 19 24 19C23.7239 19 23.5 19.2239 23.5 19.5L23.5 23.5L19.5 23.5C19.2239 23.5 19 23.7239 19 24C19 24.2761 19.2239 24.5 19.5 24.5L24 24.5ZM14 14L13.6464 14.3536L23.6464 24.3536L24 24L24.3536 23.6464L14.3536 13.6464L14 14Z" fill="white"/>
</svg>
