<svg width="34" height="34" viewBox="0 0 34 34" fill="none" xmlns="http://www.w3.org/2000/svg">
<path d="M16.8333 23.2032C17.5495 23.2032 18.2363 22.9187 18.7427 22.4123C19.2492 21.9059 19.5336 21.219 19.5336 20.5029C19.5336 19.7867 19.2492 19.0999 18.7427 18.5935C18.2363 18.0871 17.5495 17.8026 16.8333 17.8026C16.1172 17.8026 15.4303 18.0871 14.9239 18.5935C14.4175 19.0999 14.133 19.7867 14.133 20.5029C14.133 21.219 14.4175 21.9059 14.9239 22.4123C15.4303 22.9187 16.1172 23.2032 16.8333 23.2032ZM24.9343 11.0518C25.6504 11.0518 26.3373 11.3363 26.8437 11.8427C27.3501 12.3491 27.6346 13.0359 27.6346 13.7521V27.2536C27.6346 27.9698 27.3501 28.6566 26.8437 29.163C26.3373 29.6695 25.6504 29.954 24.9343 29.954H8.73241C8.01625 29.954 7.32941 29.6695 6.82301 29.163C6.3166 28.6566 6.0321 27.9698 6.0321 27.2536V13.7521C6.0321 13.0359 6.3166 12.3491 6.82301 11.8427C7.32941 11.3363 8.01625 11.0518 8.73241 11.0518H10.0826V8.35148C10.0826 6.56106 10.7938 4.84398 12.0598 3.57796C13.3258 2.31195 15.0429 1.60071 16.8333 1.60071C17.7199 1.60071 18.5977 1.77532 19.4167 2.11458C20.2358 2.45384 20.98 2.9511 21.6069 3.57796C22.2337 4.20483 22.731 4.94903 23.0702 5.76807C23.4095 6.58711 23.5841 7.46496 23.5841 8.35148V11.0518H24.9343ZM16.8333 4.30102C15.7591 4.30102 14.7288 4.72776 13.9692 5.48737C13.2096 6.24698 12.7829 7.27723 12.7829 8.35148V11.0518H20.8838V8.35148C20.8838 7.27723 20.4571 6.24698 19.6974 5.48737C18.9378 4.72776 17.9076 4.30102 16.8333 4.30102Z" fill="#00D09E"/>
</svg>
