<svg width="40" height="40" viewBox="0 0 40 40" fill="none" xmlns="http://www.w3.org/2000/svg">
<path d="M32.9084 21.6667C34.0788 19.9843 34.7853 18.0232 34.9569 15.9809C35.1285 13.9386 34.7591 11.8872 33.8858 10.0331C33.0126 8.17893 31.6663 6.58756 29.9825 5.41913C28.2987 4.25071 26.3368 3.54645 24.2943 3.37726C22.2519 3.20807 20.2008 3.57991 18.3477 4.45535C16.4947 5.3308 14.9049 6.67896 13.7384 8.36412C12.572 10.0493 11.87 12.012 11.7033 14.0547C11.5365 16.0974 11.9107 18.1479 12.7883 20" stroke="white" stroke-width="1.5" stroke-linecap="round" stroke-linejoin="round"/>
<path d="M23.3333 10C21.4917 10 20 11.12 20 12.5C20 13.88 21.4917 15 23.3333 15C25.175 15 26.6667 16.12 26.6667 17.5C26.6667 18.88 25.175 20 23.3333 20M23.3333 10C24.7833 10 26.02 10.695 26.4767 11.6667M23.3333 10V8.33334M23.3333 20C21.8833 20 20.6467 19.305 20.19 18.3333M23.3333 20V21.6667M5 23.3333H8.99167C9.48167 23.3333 9.965 23.4433 10.4033 23.6567L13.8067 25.3033C14.245 25.515 14.7283 25.625 15.22 25.625H16.9567C18.6367 25.625 20 26.9433 20 28.57C20 28.6367 19.955 28.6933 19.89 28.7117L15.655 29.8833C14.8951 30.0933 14.0848 30.0198 13.375 29.6767L9.73667 27.9167M20 27.5L27.655 25.1483C28.3214 24.9439 29.0354 24.9551 29.6951 25.1805C30.3547 25.4058 30.9263 25.8338 31.3283 26.4033C31.9433 27.2533 31.6933 28.4733 30.7967 28.99L18.2717 36.2183C17.88 36.4449 17.4464 36.5894 16.9971 36.643C16.5478 36.6966 16.0923 36.6581 15.6583 36.53L5 33.3667" stroke="white" stroke-width="1.5" stroke-linecap="round" stroke-linejoin="round"/>
</svg>
