<svg width="26" height="25" viewBox="0 0 26 25" fill="none" xmlns="http://www.w3.org/2000/svg">
<path d="M13 9.375C12.1712 9.375 11.3764 9.70424 10.7903 10.2903C10.2043 10.8763 9.87502 11.6712 9.87502 12.5C9.87502 13.3288 10.2043 14.1237 10.7903 14.7097C11.3764 15.2958 12.1712 15.625 13 15.625C13.8288 15.625 14.6237 15.2958 15.2097 14.7097C15.7958 14.1237 16.125 13.3288 16.125 12.5C16.125 11.6712 15.7958 10.8763 15.2097 10.2903C14.6237 9.70424 13.8288 9.375 13 9.375ZM13 17.7083C11.6187 17.7083 10.2939 17.1596 9.31717 16.1828C8.34042 15.2061 7.79169 13.8813 7.79169 12.5C7.79169 11.1187 8.34042 9.7939 9.31717 8.81715C10.2939 7.8404 11.6187 7.29167 13 7.29167C14.3814 7.29167 15.7061 7.8404 16.6829 8.81715C17.6596 9.7939 18.2084 11.1187 18.2084 12.5C18.2084 13.8813 17.6596 15.2061 16.6829 16.1828C15.7061 17.1596 14.3814 17.7083 13 17.7083ZM13 4.6875C7.79169 4.6875 3.34377 7.92708 1.54169 12.5C3.34377 17.0729 7.79169 20.3125 13 20.3125C18.2084 20.3125 22.6563 17.0729 24.4584 12.5C22.6563 7.92708 18.2084 4.6875 13 4.6875Z" fill="#00D09E"/>
</svg>
