<svg width="36" height="35" viewBox="0 0 36 35" fill="none" xmlns="http://www.w3.org/2000/svg">
<path d="M23.1042 25.9554L30.8844 18.1767C31.0205 18.0396 31.1878 17.9667 31.3861 17.9579C31.5844 17.9492 31.7609 18.0221 31.9155 18.1767C32.07 18.3312 32.1478 18.5028 32.1488 18.6915C32.1498 18.8801 32.072 19.0521 31.9155 19.2077L23.9282 27.195C23.6929 27.4312 23.4182 27.5494 23.1042 27.5494C22.7902 27.5494 22.5155 27.4312 22.2802 27.195L18.4317 23.3465C18.2956 23.2103 18.2227 23.0431 18.213 22.8448C18.2032 22.6465 18.2762 22.47 18.4317 22.3154C18.5873 22.1608 18.7593 22.083 18.948 22.0821C19.1366 22.0811 19.3087 22.1589 19.4642 22.3154L23.1042 25.9554ZM8.69004 29.1667C8.04157 29.1667 7.48692 28.9358 7.02608 28.4739C6.56525 28.0121 6.33435 27.4585 6.33337 26.8129V8.18854C6.33337 7.54104 6.56428 6.98687 7.02608 6.52604C7.48789 6.0652 8.04205 5.8343 8.68858 5.83333H15.4509C15.587 5.26361 15.8898 4.78479 16.3594 4.39687C16.829 4.00798 17.3759 3.81354 18 3.81354C18.6359 3.81354 19.1871 4.00798 19.6538 4.39687C20.1205 4.78382 20.4218 5.26263 20.558 5.83333H27.31C27.9585 5.83333 28.5137 6.06423 28.9755 6.52604C29.4373 6.98784 29.6677 7.54201 29.6667 8.18854V13.8542C29.6667 14.0612 29.5967 14.2343 29.4567 14.3733C29.3167 14.5124 29.1432 14.5824 28.9361 14.5833C28.729 14.5843 28.5559 14.5143 28.4169 14.3733C28.2779 14.2324 28.2084 14.0593 28.2084 13.8542V8.19C28.2084 7.96541 28.115 7.7593 27.9284 7.57166C27.7417 7.38402 27.5356 7.29069 27.31 7.29166H23.8334V9.36687C23.8334 9.70034 23.7216 9.98034 23.498 10.2069C23.2743 10.4334 22.9973 10.5462 22.6667 10.5452H13.3334C13.0028 10.5452 12.7257 10.4324 12.5021 10.2069C12.2785 9.98131 12.1667 9.70131 12.1667 9.36687V7.29166H8.69004C8.46546 7.29166 8.25935 7.38499 8.07171 7.57166C7.88407 7.75833 7.79074 7.96444 7.79171 8.19V26.8114C7.79171 27.0351 7.88504 27.2407 8.07171 27.4283C8.25837 27.616 8.464 27.7093 8.68858 27.7083H15.8125C16.0196 27.7083 16.1927 27.7783 16.3317 27.9183C16.4707 28.0583 16.5407 28.2319 16.5417 28.4389C16.5427 28.646 16.4727 28.8191 16.3317 28.9581C16.1907 29.0971 16.0177 29.1667 15.8125 29.1667H8.69004ZM18.0044 7.62708C18.3398 7.62708 18.6193 7.5143 18.843 7.28875C19.0666 7.06222 19.1784 6.78125 19.1784 6.44583C19.1784 6.11041 19.0651 5.8309 18.8386 5.60729C18.6121 5.38368 18.3311 5.27187 17.9957 5.27187C17.6602 5.27187 17.3807 5.38562 17.1571 5.61312C16.9335 5.84062 16.8217 6.12159 16.8217 6.45604C16.8217 6.79048 16.9355 7.06951 17.163 7.29312C17.3905 7.51673 17.6709 7.62708 18.0044 7.62708Z" fill="#00D09E" style="fill:#00D09E;fill:color(display-p3 0.0000 0.8167 0.6207);fill-opacity:1;"/>
</svg>
