<svg width="57" height="53" viewBox="0 0 57 53" fill="none" xmlns="http://www.w3.org/2000/svg">
<rect width="57" height="53" rx="22" fill="#00D09E" style="fill:#00D09E;fill:color(display-p3 0.0000 0.8167 0.6207);fill-opacity:1;"/>
<path d="M33.6042 34.9553L41.3844 27.1766C41.5205 27.0395 41.6878 26.9666 41.8861 26.9578C42.0844 26.9491 42.2609 27.022 42.4155 27.1766C42.57 27.3312 42.6478 27.5028 42.6488 27.6914C42.6498 27.88 42.572 28.0521 42.4155 28.2076L34.4282 36.1949C34.1929 36.4312 33.9182 36.5493 33.6042 36.5493C33.2902 36.5493 33.0155 36.4312 32.7803 36.1949L28.9317 32.3464C28.7956 32.2103 28.7227 32.0431 28.713 31.8447C28.7032 31.6464 28.7762 31.4699 28.9317 31.3153C29.0873 31.1608 29.2593 31.083 29.448 31.082C29.6366 31.081 29.8087 31.1588 29.9642 31.3153L33.6042 34.9553ZM19.19 38.1666C18.5416 38.1666 17.9869 37.9357 17.5261 37.4739C17.0652 37.0121 16.8343 36.4584 16.8334 35.8128V17.1885C16.8334 16.541 17.0643 15.9868 17.5261 15.526C17.9879 15.0651 18.5421 14.8342 19.1886 14.8333H25.9509C26.087 14.2635 26.3898 13.7847 26.8594 13.3968C27.329 13.0079 27.8759 12.8135 28.5 12.8135C29.1359 12.8135 29.6871 13.0079 30.1538 13.3968C30.6205 13.7838 30.9218 14.2626 31.058 14.8333H37.81C38.4585 14.8333 39.0137 15.0642 39.4755 15.526C39.9373 15.9878 40.1677 16.5419 40.1667 17.1885V22.8541C40.1667 23.0612 40.0967 23.2342 39.9567 23.3733C39.8167 23.5123 39.6432 23.5823 39.4361 23.5833C39.229 23.5842 39.0559 23.5142 38.9169 23.3733C38.7779 23.2323 38.7084 23.0592 38.7084 22.8541V17.1899C38.7084 16.9654 38.615 16.7592 38.4284 16.5716C38.2417 16.384 38.0356 16.2906 37.81 16.2916H34.3334V18.3668C34.3334 18.7003 34.2216 18.9803 33.998 19.2068C33.7743 19.4333 33.4973 19.5461 33.1667 19.5451H23.8334C23.5028 19.5451 23.2257 19.4324 23.0021 19.2068C22.7785 18.9813 22.6667 18.7013 22.6667 18.3668V16.2916H19.19C18.9655 16.2916 18.7593 16.3849 18.5717 16.5716C18.3841 16.7583 18.2907 16.9644 18.2917 17.1899V35.8114C18.2917 36.035 18.385 36.2406 18.5717 36.4283C18.7584 36.6159 18.964 36.7092 19.1886 36.7083H26.3125C26.5196 36.7083 26.6927 36.7783 26.8317 36.9183C26.9707 37.0583 27.0407 37.2318 27.0417 37.4389C27.0427 37.646 26.9727 37.819 26.8317 37.9581C26.6907 38.0971 26.5177 38.1666 26.3125 38.1666H19.19ZM28.5044 16.627C28.8398 16.627 29.1193 16.5142 29.343 16.2887C29.5666 16.0622 29.6784 15.7812 29.6784 15.4458C29.6784 15.1104 29.5651 14.8308 29.3386 14.6072C29.1121 14.3836 28.8311 14.2718 28.4957 14.2718C28.1602 14.2718 27.8807 14.3856 27.6571 14.6131C27.4335 14.8406 27.3217 15.1215 27.3217 15.456C27.3217 15.7904 27.4355 16.0694 27.663 16.2931C27.8905 16.5167 28.1709 16.627 28.5044 16.627Z" fill="white" style="fill:white;fill-opacity:1;"/>
</svg>
