<svg width="23" height="28" viewBox="0 0 23 28" fill="none" xmlns="http://www.w3.org/2000/svg">
<path d="M4.375 8.875C4.375 7.05164 5.09933 5.30295 6.38864 4.01364C7.67795 2.72433 9.42664 2 11.25 2C13.0734 2 14.822 2.72433 16.1114 4.01364C17.4007 5.30295 18.125 7.05164 18.125 8.875C18.125 10.6984 17.4007 12.447 16.1114 13.7364C14.822 15.0257 13.0734 15.75 11.25 15.75C9.42664 15.75 7.67795 15.0257 6.38864 13.7364C5.09933 12.447 4.375 10.6984 4.375 8.875ZM0 23.25C0 21.5924 0.65848 20.0027 1.83058 18.8306C3.00269 17.6585 4.5924 17 6.25 17H16.25C17.9076 17 19.4973 17.6585 20.6694 18.8306C21.8415 20.0027 22.5 21.5924 22.5 23.25V27H0V23.25Z" fill="#00D09E"/>
</svg>
