<svg width="57" height="53" viewBox="0 0 57 53" fill="none" xmlns="http://www.w3.org/2000/svg">
<rect width="57" height="53" rx="22" fill="#00D09E"/>
<path d="M30.5581 11.7967L42.5265 18.1233C44.3031 19.0617 44.3031 21.6067 42.5265 22.5433L40.4031 23.6667L42.5265 24.79C44.3031 25.7283 44.3031 28.2733 42.5265 29.21L40.4031 30.3333L42.5265 31.4567C44.3031 32.395 44.3031 34.94 42.5265 35.8767L30.5581 42.2033C30.0779 42.4573 29.543 42.59 28.9998 42.59C28.4566 42.59 27.9216 42.4573 27.4415 42.2033L15.4731 35.8767C13.6965 34.9383 13.6965 32.395 15.4731 31.4567L17.5981 30.3333L15.4731 29.21C13.6965 28.2717 13.6965 25.7283 15.4731 24.79L17.5981 23.6667L15.4731 22.5433C13.6965 21.605 13.6965 19.0617 15.4731 18.1233L27.4415 11.7967C27.9216 11.5427 28.4566 11.41 28.9998 11.41C29.543 11.41 30.0779 11.5427 30.5581 11.7967ZM36.8365 32.2183L30.5581 35.5367C30.0779 35.7906 29.543 35.9234 28.9998 35.9234C28.4566 35.9234 27.9216 35.7906 27.4415 35.5367L21.1631 32.22L18.4248 33.6667L28.9998 39.2567L39.5765 33.6667L36.8365 32.2183ZM36.8365 25.5517L30.5581 28.8717C30.1227 29.1016 29.6417 29.2322 29.1498 29.2541C28.6579 29.276 28.1673 29.1887 27.7131 28.9983L27.4415 28.8717L21.1631 25.5517L18.4248 27.0017L28.9998 32.5883L39.5765 27L36.8365 25.5517ZM28.9998 14.7433L18.4248 20.3333L28.9998 25.9233L39.5765 20.3333L28.9998 14.7433Z" fill="white"/>
</svg>
